<svg width="360" height="360" viewBox="0 0 360 360" fill="none" xmlns="http://www.w3.org/2000/svg">
  <!-- Noah (links) -->
  <g transform="translate(0,80)">
    <circle cx="100" cy="100" r="100" fill="#C8E8F8"/>
    <g transform="translate(30.00, 47.47) scale(1.6157)">
      <path d="M35.113,71.430 L51.533,71.430 L51.533,88.142 L35.113,88.142 Z" fill="#fdcc9b"/>
      <path d="M16.900,45.771 C16.923,49.604 13.834,52.727 10.004,52.750 C6.169,52.775 3.045,49.686 3.022,45.854 C3.000,42.021 6.088,38.895 9.921,38.874 C13.754,38.851 16.877,41.940 16.900,45.771 Z" fill="#fdcc9b"/>
      <path d="M13.991,45.787 C14.006,48.014 12.210,49.829 9.985,49.844 C7.761,49.855 5.944,48.062 5.930,45.835 C5.918,43.607 7.712,41.794 9.937,41.783 C12.165,41.767 13.977,43.562 13.991,45.787 Z" fill="#f4b882"/>
      <path d="M83.625,45.378 C83.648,49.210 80.559,52.336 76.727,52.357 C72.894,52.382 69.768,49.293 69.745,45.460 C69.723,41.628 72.812,38.504 76.645,38.481 C80.477,38.458 83.600,41.547 83.625,45.378 Z" fill="#fdcc9b"/>
      <path d="M80.713,45.396 C80.728,47.623 78.933,49.437 76.708,49.451 C74.483,49.462 72.667,47.669 72.653,45.441 C72.640,43.217 74.433,41.401 76.662,41.387 C78.888,41.375 80.699,43.168 80.713,45.396 Z" fill="#f4b882"/>
      <path d="M76.525,47.852 C76.614,62.688 64.546,74.897 49.711,74.984 L36.937,75.057 C22.100,75.146 9.891,63.079 9.802,48.245 L9.736,36.636 C9.647,21.799 21.714,9.590 36.548,9.502 L49.324,9.426 C64.160,9.340 76.372,21.405 76.458,36.242 L76.525,47.852 Z" fill="#fdcc9b"/>
      <path d="M47.042,55.203 C47.049,56.495 45.394,57.554 43.347,57.567 C41.298,57.579 39.631,56.541 39.622,55.246 C39.615,53.955 41.271,52.898 43.319,52.887 C45.365,52.873 47.033,53.913 47.042,55.203 Z" fill="#f4b882"/>
      <path d="M63.732,48.089 C63.732,49.983 62.608,51.533 61.235,51.533 C59.861,51.533 58.737,49.983 58.737,48.089 C58.737,46.195 59.861,44.645 61.235,44.645 C62.608,44.645 63.732,46.195 63.732,48.089 Z" fill="#352215"/>
      <path d="M27.540,48.089 C27.540,49.983 26.416,51.533 25.042,51.533 C23.669,51.533 22.545,49.983 22.545,48.089 C22.545,46.195 23.669,44.645 25.042,44.645 C26.416,44.645 27.540,46.195 27.540,48.089 Z" fill="#352215"/>
      <path d="M56.609,39.655 C59.400,37.262 63.092,37.626 65.837,39.884 C66.506,40.433 67.333,39.378 66.667,38.830 C63.487,36.215 59.054,35.798 55.798,38.588 C55.145,39.146 55.951,40.220 56.609,39.655 Z" fill="#2d2c2b"/>
      <path d="M29.668,39.655 C26.877,37.262 23.185,37.626 20.440,39.884 C19.771,40.433 18.944,39.378 19.610,38.830 C22.790,36.215 27.223,35.798 30.479,38.588 C31.132,39.146 30.326,40.220 29.668,39.655 Z" fill="#2d2c2b"/>
      <path d="M34.586,61.745 C37.087,67.537 49.456,67.601 51.694,61.563 C52.039,60.635 50.560,60.240 50.220,61.156 C48.420,66.009 37.845,65.459 35.907,60.973 C35.516,60.070 34.197,60.849 34.586,61.745 Z" fill="#f1a58d"/>
      <path d="M51.533,79.785 C48.763,84.350 37.883,84.350 35.113,79.785 C35.113,79.785 9.022,79.181 3.022,94.500 L43.139,94.500 L43.323,94.500 L83.441,94.500 C77.440,79.181 51.533,79.785 51.533,79.785 Z" fill="#00acc2"/>
      <path d="M9.921,38.874 C9.921,38.874 21.309,29.000 25.041,24.667 C25.041,24.667 45.942,27.666 57.276,20.333 C57.276,20.333 69.334,35.314 76.472,38.491 C76.472,38.491 83.625,3.000 43.130,3.000 C3.022,3.000 9.921,38.874 9.921,38.874 Z" fill="#2d2c2b"/>
    </g>
  </g>

  <!-- Emma (rechts) -->
  <g transform="translate(160,80)">
    <circle cx="100" cy="100" r="100" fill="#FFE0EC"/>
    <g transform="translate(30.00, 53.61) scale(1.4873)">
      <path d="M15.810,55.303 C15.810,55.303 7.750,63.630 10.500,74.130 C13.250,84.630 6.750,87.630 3.000,88.130 C3.000,88.130 29.660,92.540 30.941,70.630 C32.222,48.720 20.870,51.476 15.810,55.303 Z" fill="#966544"/>
      <path d="M40.962,75.720 L57.381,75.720 L57.381,97.214 L40.962,97.214 Z" fill="#fdcc9b"/>
      <path d="M22.750,50.061 C22.771,53.894 19.683,57.017 15.853,57.040 C12.019,57.065 8.895,53.976 8.872,50.144 C8.850,46.311 11.938,43.185 15.771,43.164 C19.603,43.141 22.727,46.230 22.750,50.061 Z" fill="#fdcc9b"/>
      <path d="M19.840,50.077 C19.855,52.305 18.059,54.120 15.834,54.135 C13.610,54.145 11.793,52.352 11.779,50.126 C11.766,47.898 13.561,46.085 15.785,46.074 C18.014,46.057 19.826,47.852 19.840,50.077 Z" fill="#f4b882"/>
      <path d="M89.474,49.668 C89.497,53.500 86.408,56.626 82.575,56.647 C78.743,56.672 75.617,53.583 75.594,49.750 C75.571,45.918 78.661,42.794 82.493,42.771 C86.326,42.748 89.449,45.837 89.474,49.668 Z" fill="#fdcc9b"/>
      <path d="M86.562,49.686 C86.578,51.913 84.782,53.727 82.557,53.741 C80.333,53.752 78.516,51.959 78.502,49.731 C78.489,47.507 80.282,45.691 82.512,45.677 C84.737,45.665 86.549,47.458 86.562,49.686 Z" fill="#f4b882"/>
      <path d="M82.374,52.142 C82.463,66.978 70.396,79.187 55.560,79.275 L42.785,79.347 C27.950,79.437 15.740,67.370 15.651,52.536 L15.584,40.926 C15.497,26.089 27.562,13.880 42.396,13.793 L55.174,13.717 C70.010,13.630 82.222,25.696 82.307,40.533 L82.374,52.142 Z" fill="#fdcc9b"/>
      <path d="M52.891,59.493 C52.898,60.784 51.243,61.843 49.196,61.856 C47.147,61.868 45.479,60.831 45.471,59.536 C45.463,58.245 47.120,57.187 49.168,57.177 C51.214,57.163 52.881,58.202 52.891,59.493 Z" fill="#f4b882"/>
      <path d="M49.180,66.198 L39.996,66.198 C39.996,66.198 40.809,72.458 49.180,72.458 C57.554,72.458 58.366,66.198 58.366,66.198 L49.180,66.198 Z" fill="#ffffff"/>
      <path d="M65.211,52.380 C65.248,51.253 65.727,49.645 67.084,49.561 C68.431,49.477 68.923,51.387 68.956,52.380 C68.982,53.184 70.232,53.187 70.206,52.380 C70.145,50.504 69.179,48.442 67.084,48.311 C64.996,48.180 64.016,50.709 63.961,52.380 C63.935,53.187 65.185,53.184 65.211,52.380 Z" fill="#352215"/>
      <path d="M29.018,52.380 C29.055,51.254 29.535,49.646 30.891,49.561 C32.238,49.477 32.731,51.386 32.764,52.380 C32.790,53.184 34.040,53.187 34.014,52.380 C33.953,50.503 32.986,48.442 30.891,48.311 C28.803,48.180 27.823,50.710 27.768,52.380 C27.742,53.187 28.992,53.184 29.018,52.380 Z" fill="#352215"/>
      <path d="M57.381,84.076 C55.950,86.434 48.831,96.215 48.831,96.215 C48.831,96.215 42.301,86.283 40.962,84.076 C40.962,84.076 14.871,83.472 8.871,98.791 L48.988,98.791 L49.172,98.791 L89.290,98.791 C83.289,83.472 57.381,84.076 57.381,84.076 Z" fill="#FF9EB5"/>
      <path d="M63.202,44.348 C65.576,43.095 68.556,43.152 70.681,44.852 C71.278,45.327 72.128,44.488 71.526,44.006 C68.959,41.955 65.493,41.789 62.600,43.317 C61.920,43.676 62.523,44.705 63.202,44.348 Z" fill="#6d4d42"/>
      <path d="M34.756,44.348 C32.381,43.095 29.401,43.152 27.276,44.852 C26.681,45.327 25.831,44.488 26.431,44.006 C28.998,41.955 32.464,41.789 35.358,43.317 C36.037,43.676 35.435,44.705 34.756,44.348 Z" fill="#6d4d42"/>
      <path d="M83.491,48.306 C83.491,48.306 91.133,3.000 50.234,3.000 C6.595,3.000 14.453,47.115 14.453,47.115 C14.453,47.115 20.730,42.075 27.591,40.180 L29.900,30.609 L30.473,40.056 L38.375,39.298 L40.138,26.327 L42.840,39.046 C42.840,39.046 77.268,38.164 83.491,48.306 Z" fill="#8c5438"/>
    </g>
  </g>
</svg>
